<?xml version="1.0" encoding="UTF-8"?>
<svg xmlns="http://www.w3.org/2000/svg" xmlns:xlink="http://www.w3.org/1999/xlink" width="5429" height="2513" viewBox="0 0 5429 2513">
<path fill-rule="nonzero" fill="rgb(0%, 0%, 0%)" fill-opacity="1" d="M 452.5625 382.398438 C 351.101562 382.390625 268.847656 464.640625 268.84375 566.109375 C 268.84375 614.828125 288.199219 661.558594 322.652344 696.019531 C 357.109375 730.46875 403.835938 749.820312 452.5625 749.820312 C 501.289062 749.820312 548.015625 730.46875 582.472656 696.019531 C 616.925781 661.558594 636.28125 614.828125 636.28125 566.109375 C 636.277344 464.640625 554.023438 382.390625 452.5625 382.398438 Z M 4952.28125 382.398438 C 4850.820312 382.398438 4768.570312 464.648438 4768.570312 566.109375 C 4768.570312 667.570312 4850.820312 749.820312 4952.28125 749.820312 C 5001 749.820312 5047.730469 730.46875 5082.191406 696.019531 C 5116.640625 661.558594 5136 614.828125 5136 566.109375 C 5135.988281 464.640625 5053.738281 382.390625 4952.28125 382.398438 Z M 357.132812 788.191406 C 343.941406 788.191406 331.320312 790.519531 319.640625 794.78125 C 312.925781 795.078125 306.277344 796.230469 299.851562 798.191406 C 279.609375 804.441406 262.679688 818.488281 252.792969 837.230469 L 9.242188 1298.539062 C -11.355469 1337.550781 3.566406 1385.871094 42.574219 1406.46875 C 61.308594 1416.371094 83.210938 1418.421875 103.460938 1412.171875 C 123.707031 1405.921875 140.640625 1391.878906 150.535156 1373.140625 L 248.464844 1187.609375 L 248.464844 1378.800781 C 248.464844 1387 249.390625 1394.980469 251.101562 1402.648438 L 251.101562 2061.285156 C 251.101562 2087.769531 261.621094 2113.167969 280.347656 2131.898438 C 299.070312 2150.625 324.472656 2161.144531 350.953125 2161.144531 C 377.441406 2161.148438 402.839844 2150.628906 421.570312 2131.898438 C 440.296875 2113.171875 450.816406 2087.769531 450.8125 2061.285156 L 450.8125 1487.46875 L 465.773438 1487.46875 C 463.699219 1486.488281 461.601562 1485.609375 459.550781 1484.519531 C 382.824219 1444 352.828125 1346.859375 393.34375 1270.128906 L 639.933594 803.058594 C 636.53125 801.179688 632.992188 799.558594 629.351562 798.191406 C 622.851562 796.199219 616.121094 795.050781 609.328125 794.761719 C 597.667969 790.511719 585.058594 788.191406 571.890625 788.191406 Z M 4856.859375 788.191406 C 4843.660156 788.191406 4831.039062 790.519531 4819.359375 794.78125 C 4812.640625 795.078125 4805.988281 796.230469 4799.570312 798.191406 C 4793.761719 800.089844 4788.191406 802.648438 4782.980469 805.820312 L 5028.109375 1270.128906 C 5068.628906 1346.871094 5038.601562 1444 4961.871094 1484.519531 C 4959.820312 1485.609375 4957.730469 1486.5 4955.660156 1487.46875 L 4982.179688 1487.46875 L 4982.179688 2061.285156 C 4982.179688 2087.769531 4992.691406 2113.171875 5011.421875 2131.898438 C 5030.148438 2150.628906 5055.550781 2161.148438 5082.039062 2161.144531 C 5137.179688 2161.136719 5181.878906 2116.429688 5181.878906 2061.285156 L 5181.878906 1392.089844 C 5181.808594 1386.511719 5181.28125 1380.941406 5180.289062 1375.441406 L 5180.289062 1187.308594 L 5278.378906 1373.140625 C 5288.28125 1391.878906 5305.210938 1405.921875 5325.460938 1412.171875 C 5345.699219 1418.421875 5367.601562 1416.371094 5386.339844 1406.46875 C 5425.351562 1385.871094 5440.269531 1337.550781 5419.679688 1298.539062 L 5176.128906 837.230469 C 5166.238281 818.488281 5149.308594 804.441406 5129.070312 798.191406 C 5122.570312 796.199219 5115.839844 795.050781 5109.058594 794.761719 C 5109.050781 794.761719 5109.050781 794.761719 5109.050781 794.761719 C 5097.390625 790.511719 5084.78125 788.191406 5071.609375 788.191406 Z M 730.953125 940.539062 L 521.308594 1337.648438 C 517.285156 1345.269531 519.535156 1352.628906 527.152344 1356.648438 C 534.773438 1360.679688 542.113281 1358.398438 546.136719 1350.78125 L 651.996094 1150.210938 C 667.519531 1120.820312 701.070312 1105.800781 733.328125 1113.789062 C 765.585938 1121.78125 788.246094 1150.730469 788.257812 1183.960938 L 788.257812 1385.941406 C 797.710938 1397.359375 810.15625 1405.910156 824.195312 1410.660156 C 810.089844 1355 815.359375 1294.371094 844.039062 1240.058594 L 866.5625 1197.390625 Z M 4694.320312 947.441406 L 4573 1177.230469 L 4606.179688 1240.058594 C 4606.179688 1240.058594 4606.179688 1240.070312 4606.179688 1240.070312 C 4606.179688 1240.070312 4606.179688 1240.070312 4606.179688 1240.078125 C 4606.179688 1240.101562 4606.171875 1240.128906 4606.179688 1240.140625 C 4623.460938 1272.910156 4632.058594 1307.941406 4633.179688 1342.789062 L 4633.179688 1183.621094 C 4633.191406 1150.390625 4655.851562 1121.441406 4688.109375 1113.441406 C 4720.371094 1105.449219 4753.921875 1120.480469 4769.441406 1149.871094 L 4875.5 1350.78125 C 4879.53125 1358.398438 4886.859375 1360.679688 4894.480469 1356.648438 C 4894.480469 1356.640625 4894.480469 1356.628906 4894.480469 1356.621094 C 4902.101562 1352.601562 4904.359375 1345.261719 4900.328125 1337.640625 Z M 4633.179688 1358.550781 C 4632.730469 1371.78125 4631.191406 1384.898438 4628.609375 1397.828125 C 4630.390625 1396.679688 4632.128906 1395.449219 4633.820312 1394.160156 C 4633.488281 1391.789062 4633.28125 1389.410156 4633.191406 1387.019531 Z M 646.449219 1451.789062 C 604.277344 1495.480469 540.488281 1513.597656 482.464844 1494.261719 L 482.464844 2061.285156 C 482.460938 2087.769531 492.980469 2113.171875 511.707031 2131.898438 C 530.4375 2150.628906 555.835938 2161.148438 582.324219 2161.144531 C 605.996094 2161.09375 628.886719 2152.632812 646.898438 2137.269531 C 646.753906 2134.351562 646.449219 2131.472656 646.449219 2128.523438 Z M 4779.378906 1457.121094 L 4779.378906 2128.523438 C 4779.378906 2128.832031 4779.378906 2129.128906 4779.378906 2129.433594 C 4797.871094 2149.246094 4823.621094 2160.691406 4850.710938 2161.144531 C 4877.199219 2161.148438 4902.601562 2150.628906 4921.328125 2131.898438 C 4940.058594 2113.171875 4950.578125 2087.769531 4950.570312 2061.285156 L 4950.570312 1489.921875 C 4891.75 1515.0625 4824.570312 1499.960938 4779.429688 1457.121094 Z M 4779.378906 1457.121094 "/>
<path fill-rule="nonzero" fill="rgb(0%, 0%, 0%)" fill-opacity="1" d="M 2686.359375 0 C 2543.019531 0 2426.820312 116.210938 2426.820312 259.550781 C 2426.820312 402.890625 2543.019531 519.101562 2686.359375 519.101562 C 2755.199219 519.101562 2821.21875 491.761719 2869.890625 443.078125 C 2918.570312 394.410156 2945.921875 328.390625 2945.921875 259.550781 C 2945.921875 190.710938 2918.570312 124.691406 2869.890625 76.019531 C 2821.21875 27.339844 2755.199219 0 2686.359375 0 Z M 2097.28125 137.421875 C 2033.710938 137.421875 1972.730469 162.679688 1927.78125 207.628906 C 1882.820312 252.589844 1857.570312 313.570312 1857.570312 377.140625 C 1857.570312 509.53125 1964.890625 616.859375 2097.28125 616.859375 C 2229.679688 616.859375 2337 509.53125 2337 377.140625 C 2337.011719 313.558594 2311.75 252.589844 2266.789062 207.628906 C 2221.839844 162.679688 2160.859375 137.421875 2097.28125 137.421875 Z M 3331.78125 137.421875 C 3199.390625 137.421875 3092.070312 244.75 3092.070312 377.140625 C 3092.070312 509.53125 3199.390625 616.859375 3331.78125 616.859375 C 3464.171875 616.859375 3571.5 509.53125 3571.5 377.140625 C 3571.5 244.75 3464.179688 137.421875 3331.78125 137.421875 Z M 1508.820312 198.078125 C 1449.808594 198.078125 1393.210938 221.519531 1351.488281 263.25 C 1309.769531 304.96875 1286.320312 361.558594 1286.320312 420.570312 C 1286.320312 479.578125 1309.769531 536.171875 1351.488281 577.890625 C 1393.210938 619.621094 1449.808594 643.058594 1508.820312 643.058594 C 1567.820312 643.058594 1624.410156 619.621094 1666.140625 577.890625 C 1707.859375 536.171875 1731.308594 479.578125 1731.308594 420.570312 C 1731.308594 361.558594 1707.859375 304.96875 1666.140625 263.25 C 1624.410156 221.519531 1567.820312 198.078125 1508.820312 198.078125 Z M 3912.25 198.078125 C 3789.378906 198.089844 3689.769531 297.691406 3689.769531 420.570312 C 3689.769531 543.441406 3789.378906 643.058594 3912.25 643.058594 C 3971.261719 643.058594 4027.859375 619.621094 4069.578125 577.898438 C 4111.308594 536.171875 4134.75 479.578125 4134.75 420.570312 C 4134.75 361.558594 4111.308594 304.96875 4069.578125 263.238281 C 4027.859375 221.519531 3971.261719 198.078125 3912.25 198.078125 Z M 936.589844 313.410156 C 883.910156 313.410156 833.390625 334.339844 796.140625 371.589844 C 758.890625 408.839844 737.964844 459.359375 737.96875 512.03125 C 737.972656 621.730469 826.894531 710.648438 936.589844 710.648438 C 1046.28125 710.648438 1135.199219 621.730469 1135.210938 512.03125 C 1135.210938 459.359375 1114.289062 408.839844 1077.039062 371.589844 C 1039.789062 334.339844 989.265625 313.410156 936.589844 313.410156 Z M 4458.949219 313.410156 C 4406.269531 313.410156 4355.75 334.339844 4318.5 371.589844 C 4281.25 408.839844 4260.328125 459.359375 4260.328125 512.03125 C 4260.339844 621.730469 4349.261719 710.648438 4458.949219 710.648438 C 4568.640625 710.648438 4657.570312 621.730469 4657.570312 512.03125 C 4657.570312 459.359375 4636.648438 408.839844 4599.398438 371.589844 C 4562.148438 334.339844 4511.628906 313.410156 4458.949219 313.410156 Z M 2551.550781 573.308594 C 2532.910156 573.308594 2515.070312 576.589844 2498.570312 582.621094 C 2489.089844 583.039062 2479.699219 584.660156 2470.621094 587.441406 C 2442.019531 596.269531 2418.101562 616.109375 2404.128906 642.578125 L 2060.058594 1294.308594 C 2030.960938 1349.421875 2052.039062 1417.691406 2107.148438 1446.800781 C 2133.621094 1460.78125 2164.558594 1463.679688 2193.160156 1454.851562 C 2221.761719 1446.019531 2245.691406 1426.179688 2259.660156 1399.710938 L 2398.019531 1137.609375 L 2398.019531 1407.699219 C 2398.019531 1419.289062 2399.339844 1430.558594 2401.75 1441.398438 L 2401.75 2371.910156 C 2401.738281 2409.324219 2416.601562 2445.210938 2443.058594 2471.671875 C 2469.519531 2498.128906 2505.398438 2512.992188 2542.820312 2512.992188 C 2580.238281 2512.992188 2616.128906 2498.128906 2642.578125 2471.671875 C 2669.039062 2445.210938 2683.898438 2409.324219 2683.890625 2371.910156 L 2683.890625 1561.238281 L 2728.609375 1561.238281 L 2728.609375 2371.910156 C 2728.609375 2409.324219 2743.46875 2445.210938 2769.921875 2471.671875 C 2796.378906 2498.128906 2832.269531 2512.992188 2869.679688 2512.992188 C 2947.589844 2512.980469 3010.738281 2449.816406 3010.730469 2371.910156 L 3010.730469 1426.488281 C 3010.640625 1418.601562 3009.898438 1410.730469 3008.5 1402.960938 L 3008.5 1137.171875 L 3147.089844 1399.710938 C 3161.070312 1426.179688 3184.988281 1446.011719 3213.589844 1454.839844 C 3242.199219 1463.671875 3273.140625 1460.78125 3299.601562 1446.800781 C 3354.71875 1417.691406 3375.808594 1349.429688 3346.710938 1294.308594 L 3002.621094 642.578125 C 2988.648438 616.109375 2964.738281 596.269531 2936.140625 587.441406 C 2926.960938 584.621094 2917.460938 582.988281 2907.871094 582.589844 C 2907.859375 582.589844 2907.859375 582.589844 2907.859375 582.589844 C 2891.378906 576.578125 2873.570312 573.308594 2854.96875 573.308594 Z M 1972.769531 666.921875 C 1955.558594 666.921875 1939.078125 669.960938 1923.839844 675.519531 C 1915.078125 675.921875 1906.410156 677.410156 1898.019531 679.980469 C 1871.609375 688.140625 1849.519531 706.460938 1836.609375 730.910156 L 1518.820312 1332.851562 C 1491.941406 1383.75 1511.421875 1446.808594 1562.320312 1473.691406 C 1586.761719 1486.601562 1615.339844 1489.28125 1641.761719 1481.121094 C 1668.179688 1472.960938 1690.269531 1454.640625 1703.179688 1430.191406 L 1830.96875 1188.109375 L 1830.96875 1437.570312 C 1830.96875 1448.28125 1832.179688 1458.691406 1834.410156 1468.699219 L 1834.410156 2328.121094 C 1834.410156 2362.679688 1848.128906 2395.824219 1872.570312 2420.261719 C 1897 2444.695312 1930.148438 2458.421875 1964.710938 2458.421875 C 1999.261719 2458.421875 2032.410156 2444.695312 2056.839844 2420.261719 C 2081.28125 2395.824219 2095.011719 2362.679688 2095 2328.121094 L 2095 1579.382812 L 2136.300781 1579.382812 L 2136.300781 2328.121094 C 2136.300781 2362.679688 2150.019531 2395.824219 2174.460938 2420.261719 C 2198.898438 2444.695312 2232.039062 2458.421875 2266.601562 2458.421875 C 2292.558594 2458.40625 2317.929688 2450.636719 2339.449219 2436.105469 C 2332.949219 2415.808594 2329.410156 2394.246094 2329.410156 2371.921875 L 2329.410156 1441.390625 C 2328.628906 1436.230469 2328.128906 1430.988281 2327.691406 1425.691406 L 2323.601562 1433.460938 C 2276.238281 1523.152344 2163.050781 1558.121094 2073.371094 1510.738281 C 1983.710938 1463.378906 1948.769531 1350.230469 1996.109375 1260.558594 L 2304.730469 675.988281 C 2303.769531 675.808594 2302.820312 675.640625 2301.859375 675.5 C 2301.859375 675.5 2301.851562 675.5 2301.851562 675.5 C 2286.640625 669.941406 2270.191406 666.921875 2253 666.921875 Z M 3207.269531 666.921875 C 3190.058594 666.921875 3173.578125 669.960938 3158.339844 675.519531 C 3149.578125 675.921875 3140.910156 677.410156 3132.53125 679.980469 C 3124.511719 682.539062 3116.828125 686.070312 3109.660156 690.480469 L 3410.640625 1260.558594 C 3457.980469 1350.230469 3423.03125 1463.390625 3333.359375 1510.738281 C 3243.691406 1558.09375 3130.511719 1523.136719 3083.160156 1433.460938 L 3083.019531 1433.230469 L 3083.019531 2371.894531 C 3083.019531 2376.554688 3082.808594 2381.167969 3082.511719 2385.757812 C 3104.429688 2430.203125 3149.660156 2458.367188 3199.21875 2458.421875 C 3271.171875 2458.410156 3329.5 2400.074219 3329.488281 2328.121094 L 3329.488281 1579.382812 L 3370.820312 1579.382812 L 3370.820312 2328.121094 C 3370.808594 2400.074219 3429.128906 2458.410156 3501.089844 2458.421875 C 3535.640625 2458.421875 3568.78125 2444.695312 3593.21875 2420.261719 C 3617.660156 2395.824219 3631.390625 2362.679688 3631.378906 2328.121094 L 3631.378906 1454.929688 C 3631.308594 1447.628906 3630.621094 1440.351562 3629.320312 1433.160156 L 3629.320312 1187.71875 L 3757.328125 1430.191406 C 3784.210938 1481.089844 3847.269531 1500.558594 3898.171875 1473.691406 C 3922.609375 1460.78125 3940.941406 1438.691406 3949.101562 1412.28125 C 3957.261719 1385.871094 3954.601562 1357.300781 3941.691406 1332.851562 L 3623.890625 730.910156 C 3610.988281 706.460938 3588.910156 688.140625 3562.488281 679.980469 C 3554.011719 677.378906 3545.230469 675.871094 3536.371094 675.5 C 3536.359375 675.488281 3536.359375 675.488281 3536.351562 675.488281 C 3521.140625 669.941406 3504.691406 666.921875 3487.511719 666.921875 Z M 1393.25 689.519531 C 1377.269531 689.519531 1361.980469 692.339844 1347.839844 697.5 C 1339.710938 697.871094 1331.660156 699.261719 1323.871094 701.640625 C 1299.359375 709.21875 1278.859375 726.21875 1266.878906 748.910156 L 971.929688 1307.578125 C 959.949219 1330.269531 957.472656 1356.789062 965.042969 1381.300781 C 972.613281 1405.820312 989.613281 1426.320312 1012.300781 1438.300781 C 1034.988281 1450.289062 1061.511719 1452.769531 1086.03125 1445.199219 C 1110.550781 1437.621094 1131.058594 1420.621094 1143.039062 1397.929688 L 1261.640625 1173.25 L 1261.640625 1404.78125 C 1261.640625 1414.710938 1262.769531 1424.378906 1264.828125 1433.671875 L 1264.828125 2231.320312 C 1264.828125 2263.394531 1277.570312 2294.15625 1300.25 2316.835938 C 1322.929688 2339.515625 1353.691406 2352.257812 1385.769531 2352.253906 C 1417.839844 2352.257812 1448.601562 2339.515625 1471.28125 2316.835938 C 1493.960938 2294.15625 1506.699219 2263.394531 1506.699219 2231.320312 L 1506.699219 1536.394531 L 1526.480469 1536.394531 C 1442.621094 1490.609375 1410.140625 1383.828125 1454.890625 1299.089844 L 1759.191406 722.699219 C 1748.789062 713.121094 1736.410156 705.929688 1722.929688 701.640625 C 1715.058594 699.230469 1706.910156 697.828125 1698.679688 697.480469 C 1684.558594 692.328125 1669.289062 689.519531 1653.339844 689.519531 Z M 3796.691406 689.519531 C 3780.71875 689.519531 3765.421875 692.339844 3751.28125 697.5 C 3743.148438 697.871094 3735.101562 699.261719 3727.320312 701.640625 C 3716.820312 705.011719 3706.980469 710.148438 3698.21875 716.839844 L 4005.621094 1299.089844 C 4050.359375 1383.839844 4017.859375 1490.621094 3933.96875 1536.394531 L 3948.46875 1536.394531 L 3948.46875 2231.320312 C 3948.46875 2263.394531 3961.210938 2294.15625 3983.890625 2316.835938 C 4006.570312 2339.515625 4037.328125 2352.257812 4069.398438 2352.253906 C 4136.179688 2352.242188 4190.308594 2298.101562 4190.308594 2231.320312 L 4190.308594 1420.890625 C 4190.238281 1414.121094 4189.601562 1407.371094 4188.398438 1400.710938 L 4188.398438 1172.871094 L 4307.199219 1397.929688 C 4319.179688 1420.621094 4339.691406 1437.621094 4364.199219 1445.191406 C 4388.71875 1452.769531 4415.25 1450.289062 4437.941406 1438.300781 C 4460.628906 1426.320312 4477.628906 1405.820312 4485.191406 1381.300781 C 4492.769531 1356.789062 4490.289062 1330.269531 4478.308594 1307.578125 L 4183.359375 748.910156 C 4171.378906 726.21875 4150.878906 709.21875 4126.371094 701.640625 C 4118.5 699.230469 4110.351562 697.828125 4102.128906 697.480469 C 4102.128906 697.480469 4102.128906 697.480469 4102.121094 697.480469 C 4088 692.328125 4072.730469 689.519531 4056.78125 689.519531 Z M 833.417969 752.128906 C 819.15625 752.128906 805.507812 754.648438 792.882812 759.261719 C 785.625 759.589844 778.433594 760.820312 771.484375 762.949219 C 749.601562 769.710938 731.300781 784.890625 720.609375 805.148438 L 457.296875 1303.890625 C 435.027344 1346.070312 451.164062 1398.308594 493.335938 1420.578125 C 513.589844 1431.289062 537.269531 1433.5 559.160156 1426.738281 C 581.050781 1419.980469 599.359375 1404.808594 610.054688 1384.539062 L 715.929688 1183.960938 L 715.929688 1390.660156 C 715.929688 1399.53125 716.925781 1408.148438 718.785156 1416.449219 L 718.785156 2128.523438 C 718.78125 2157.15625 730.15625 2184.617188 750.398438 2204.863281 C 770.644531 2225.109375 798.105469 2236.484375 826.738281 2236.484375 C 855.371094 2236.484375 882.832031 2225.113281 903.078125 2204.867188 C 923.324219 2184.617188 934.699219 2157.15625 934.695312 2128.523438 L 934.695312 1508.148438 L 968.910156 1508.148438 L 968.910156 2128.523438 C 968.90625 2157.160156 980.28125 2184.621094 1000.53125 2204.867188 C 1020.78125 2225.117188 1048.238281 2236.488281 1076.878906 2236.484375 C 1136.488281 2236.472656 1184.808594 2188.140625 1184.808594 2128.523438 L 1184.808594 1459.019531 C 1134.960938 1518.539062 1049.589844 1539.78125 978.527344 1502.230469 C 896.726562 1459.039062 864.796875 1355.609375 907.996094 1273.808594 L 1165.269531 786.511719 C 1155.019531 775.519531 1142.089844 767.398438 1127.730469 762.949219 C 1120.710938 760.789062 1113.429688 759.550781 1106.089844 759.230469 C 1106.089844 759.230469 1106.089844 759.230469 1106.078125 759.230469 C 1093.480469 754.640625 1079.839844 752.128906 1065.609375 752.128906 Z M 4355.789062 752.128906 C 4341.519531 752.128906 4327.859375 754.648438 4315.238281 759.261719 C 4307.980469 759.589844 4300.800781 760.820312 4293.851562 762.949219 C 4287.839844 764.941406 4282.070312 767.589844 4276.640625 770.851562 L 4542.179688 1273.808594 L 4542.179688 1273.839844 C 4585.359375 1355.640625 4553.441406 1459.039062 4471.648438 1502.230469 C 4467.5 1504.429688 4463.300781 1506.359375 4459.058594 1508.148438 L 4491.269531 1508.148438 L 4491.269531 2128.523438 C 4491.269531 2157.15625 4502.640625 2184.617188 4522.890625 2204.863281 C 4543.140625 2225.113281 4570.601562 2236.484375 4599.230469 2236.484375 C 4658.851562 2236.476562 4707.179688 2188.140625 4707.171875 2128.523438 L 4707.171875 1405.039062 C 4707.109375 1399 4706.539062 1392.96875 4705.46875 1387.03125 L 4705.46875 1183.628906 L 4811.519531 1384.539062 C 4822.21875 1404.800781 4840.53125 1419.980469 4862.410156 1426.738281 C 4884.300781 1433.5 4907.980469 1431.28125 4928.230469 1420.578125 C 4970.410156 1398.308594 4986.550781 1346.070312 4964.28125 1303.890625 L 4700.960938 805.148438 C 4690.269531 784.890625 4671.96875 769.710938 4650.089844 762.941406 C 4643.070312 760.789062 4635.789062 759.539062 4628.449219 759.230469 C 4628.441406 759.230469 4628.441406 759.230469 4628.441406 759.230469 C 4615.828125 754.628906 4602.210938 752.128906 4587.96875 752.128906 Z M 4262.550781 1455.269531 L 4262.550781 2191.5625 C 4282.609375 2219.457031 4314.75 2236.136719 4349.101562 2236.484375 C 4377.730469 2236.484375 4405.191406 2225.113281 4425.441406 2204.867188 C 4445.691406 2184.617188 4457.058594 2157.15625 4457.058594 2128.523438 L 4457.058594 1509 C 4387.789062 1537.246094 4308.78125 1513.257812 4262.550781 1455.269531 Z M 1762.089844 1471.480469 C 1717.699219 1545.796875 1624.570312 1577.132812 1545.019531 1545.222656 L 1545.019531 2231.320312 C 1545.019531 2263.394531 1557.761719 2294.15625 1580.441406 2316.835938 C 1603.121094 2339.515625 1633.878906 2352.257812 1665.960938 2352.253906 C 1703.691406 2352.222656 1739.238281 2334.578125 1762.089844 2304.550781 Z M 3703.671875 1479.390625 L 3703.671875 2316.800781 C 3726.351562 2339.496094 3757.121094 2352.25 3789.210938 2352.253906 C 3821.28125 2352.257812 3852.039062 2339.515625 3874.71875 2316.835938 C 3897.398438 2294.15625 3910.140625 2263.394531 3910.140625 2231.320312 L 3910.140625 1547.066406 C 3834.789062 1574.429688 3748.769531 1546.265625 3703.671875 1479.390625 Z M 3703.671875 1479.390625 "/>
<path fill-rule="nonzero" fill="rgb(0%, 0%, 0%)" fill-opacity="1" d="M 2686.359375 0 C 2543.019531 0 2426.820312 116.210938 2426.820312 259.550781 C 2426.820312 402.890625 2543.019531 519.101562 2686.359375 519.101562 C 2755.199219 519.101562 2821.21875 491.761719 2869.890625 443.078125 C 2918.570312 394.410156 2945.921875 328.390625 2945.921875 259.550781 C 2945.921875 190.710938 2918.570312 124.691406 2869.890625 76.019531 C 2821.21875 27.339844 2755.199219 0 2686.359375 0 Z M 2097.28125 137.421875 C 2033.710938 137.421875 1972.730469 162.679688 1927.78125 207.628906 C 1882.820312 252.589844 1857.570312 313.570312 1857.570312 377.140625 C 1857.570312 509.53125 1964.890625 616.859375 2097.28125 616.859375 C 2229.679688 616.859375 2337 509.53125 2337 377.140625 C 2337.011719 313.558594 2311.75 252.589844 2266.789062 207.628906 C 2221.839844 162.679688 2160.859375 137.421875 2097.28125 137.421875 Z M 3331.78125 137.421875 C 3199.390625 137.421875 3092.070312 244.75 3092.070312 377.140625 C 3092.070312 509.53125 3199.390625 616.859375 3331.78125 616.859375 C 3464.171875 616.859375 3571.5 509.53125 3571.5 377.140625 C 3571.5 244.75 3464.179688 137.421875 3331.78125 137.421875 Z M 1508.820312 198.078125 C 1449.808594 198.078125 1393.210938 221.519531 1351.488281 263.25 C 1309.769531 304.96875 1286.320312 361.558594 1286.320312 420.570312 C 1286.320312 479.578125 1309.769531 536.171875 1351.488281 577.890625 C 1393.210938 619.621094 1449.808594 643.058594 1508.820312 643.058594 C 1567.820312 643.058594 1624.410156 619.621094 1666.140625 577.890625 C 1707.859375 536.171875 1731.308594 479.578125 1731.308594 420.570312 C 1731.308594 361.558594 1707.859375 304.96875 1666.140625 263.25 C 1624.410156 221.519531 1567.820312 198.078125 1508.820312 198.078125 Z M 3912.25 198.078125 C 3789.378906 198.089844 3689.769531 297.691406 3689.769531 420.570312 C 3689.769531 543.441406 3789.378906 643.058594 3912.25 643.058594 C 3971.261719 643.058594 4027.859375 619.621094 4069.578125 577.898438 C 4111.308594 536.171875 4134.75 479.578125 4134.75 420.570312 C 4134.75 361.558594 4111.308594 304.96875 4069.578125 263.238281 C 4027.859375 221.519531 3971.261719 198.078125 3912.25 198.078125 Z M 936.589844 313.410156 C 883.910156 313.410156 833.390625 334.339844 796.140625 371.589844 C 758.890625 408.839844 737.964844 459.359375 737.96875 512.03125 C 737.972656 621.730469 826.894531 710.648438 936.589844 710.648438 C 1046.28125 710.648438 1135.199219 621.730469 1135.210938 512.03125 C 1135.210938 459.359375 1114.289062 408.839844 1077.039062 371.589844 C 1039.789062 334.339844 989.265625 313.410156 936.589844 313.410156 Z M 4458.949219 313.410156 C 4406.269531 313.410156 4355.75 334.339844 4318.5 371.589844 C 4281.25 408.839844 4260.328125 459.359375 4260.328125 512.03125 C 4260.339844 621.730469 4349.261719 710.648438 4458.949219 710.648438 C 4568.640625 710.648438 4657.570312 621.730469 4657.570312 512.03125 C 4657.570312 459.359375 4636.648438 408.839844 4599.398438 371.589844 C 4562.148438 334.339844 4511.628906 313.410156 4458.949219 313.410156 Z M 2551.550781 573.308594 C 2532.910156 573.308594 2515.070312 576.589844 2498.570312 582.621094 C 2489.089844 583.039062 2479.699219 584.660156 2470.621094 587.441406 C 2442.019531 596.269531 2418.101562 616.109375 2404.128906 642.578125 L 2060.058594 1294.308594 C 2030.960938 1349.421875 2052.039062 1417.691406 2107.148438 1446.800781 C 2133.621094 1460.78125 2164.558594 1463.679688 2193.160156 1454.851562 C 2221.761719 1446.019531 2245.691406 1426.179688 2259.660156 1399.710938 L 2398.019531 1137.609375 L 2398.019531 1407.699219 C 2398.019531 1419.289062 2399.339844 1430.558594 2401.75 1441.398438 L 2401.75 2371.910156 C 2401.738281 2409.324219 2416.601562 2445.210938 2443.058594 2471.671875 C 2469.519531 2498.128906 2505.398438 2512.992188 2542.820312 2512.992188 C 2580.238281 2512.992188 2616.128906 2498.128906 2642.578125 2471.671875 C 2669.039062 2445.210938 2683.898438 2409.324219 2683.890625 2371.910156 L 2683.890625 1561.238281 L 2728.609375 1561.238281 L 2728.609375 2371.910156 C 2728.609375 2409.324219 2743.46875 2445.210938 2769.921875 2471.671875 C 2796.378906 2498.128906 2832.269531 2512.992188 2869.679688 2512.992188 C 2947.589844 2512.980469 3010.738281 2449.816406 3010.730469 2371.910156 L 3010.730469 1426.488281 C 3010.640625 1418.601562 3009.898438 1410.730469 3008.5 1402.960938 L 3008.5 1137.171875 L 3147.089844 1399.710938 C 3161.070312 1426.179688 3184.988281 1446.011719 3213.589844 1454.839844 C 3242.199219 1463.671875 3273.140625 1460.78125 3299.601562 1446.800781 C 3354.71875 1417.691406 3375.808594 1349.429688 3346.710938 1294.308594 L 3002.621094 642.578125 C 2988.648438 616.109375 2964.738281 596.269531 2936.140625 587.441406 C 2926.960938 584.621094 2917.460938 582.988281 2907.871094 582.589844 C 2907.859375 582.589844 2907.859375 582.589844 2907.859375 582.589844 C 2891.378906 576.578125 2873.570312 573.308594 2854.96875 573.308594 Z M 1972.769531 666.921875 C 1955.558594 666.921875 1939.078125 669.960938 1923.839844 675.519531 C 1915.078125 675.921875 1906.410156 677.410156 1898.019531 679.980469 C 1871.609375 688.140625 1849.519531 706.460938 1836.609375 730.910156 L 1518.820312 1332.851562 C 1491.941406 1383.75 1511.421875 1446.808594 1562.320312 1473.691406 C 1586.761719 1486.601562 1615.339844 1489.28125 1641.761719 1481.121094 C 1668.179688 1472.960938 1690.269531 1454.640625 1703.179688 1430.191406 L 1830.96875 1188.109375 L 1830.96875 1437.570312 C 1830.96875 1448.28125 1832.179688 1458.691406 1834.410156 1468.699219 L 1834.410156 2328.121094 C 1834.410156 2362.679688 1848.128906 2395.824219 1872.570312 2420.261719 C 1897 2444.695312 1930.148438 2458.421875 1964.710938 2458.421875 C 1999.261719 2458.421875 2032.410156 2444.695312 2056.839844 2420.261719 C 2081.28125 2395.824219 2095.011719 2362.679688 2095 2328.121094 L 2095 1579.382812 L 2136.300781 1579.382812 L 2136.300781 2328.121094 C 2136.300781 2362.679688 2150.019531 2395.824219 2174.460938 2420.261719 C 2198.898438 2444.695312 2232.039062 2458.421875 2266.601562 2458.421875 C 2292.558594 2458.40625 2317.929688 2450.636719 2339.449219 2436.105469 C 2332.949219 2415.808594 2329.410156 2394.246094 2329.410156 2371.921875 L 2329.410156 1441.390625 C 2328.628906 1436.230469 2328.128906 1430.988281 2327.691406 1425.691406 L 2323.601562 1433.460938 C 2276.238281 1523.152344 2163.050781 1558.121094 2073.371094 1510.738281 C 1983.710938 1463.378906 1948.769531 1350.230469 1996.109375 1260.558594 L 2304.730469 675.988281 C 2303.769531 675.808594 2302.820312 675.640625 2301.859375 675.5 C 2301.859375 675.5 2301.851562 675.5 2301.851562 675.5 C 2286.640625 669.941406 2270.191406 666.921875 2253 666.921875 Z M 3207.269531 666.921875 C 3190.058594 666.921875 3173.578125 669.960938 3158.339844 675.519531 C 3149.578125 675.921875 3140.910156 677.410156 3132.53125 679.980469 C 3124.511719 682.539062 3116.828125 686.070312 3109.660156 690.480469 L 3410.640625 1260.558594 C 3457.980469 1350.230469 3423.03125 1463.390625 3333.359375 1510.738281 C 3243.691406 1558.09375 3130.511719 1523.136719 3083.160156 1433.460938 L 3083.019531 1433.230469 L 3083.019531 2371.894531 C 3083.019531 2376.554688 3082.808594 2381.167969 3082.511719 2385.757812 C 3104.429688 2430.203125 3149.660156 2458.367188 3199.21875 2458.421875 C 3271.171875 2458.410156 3329.5 2400.074219 3329.488281 2328.121094 L 3329.488281 1579.382812 L 3370.820312 1579.382812 L 3370.820312 2328.121094 C 3370.808594 2400.074219 3429.128906 2458.410156 3501.089844 2458.421875 C 3535.640625 2458.421875 3568.78125 2444.695312 3593.21875 2420.261719 C 3617.660156 2395.824219 3631.390625 2362.679688 3631.378906 2328.121094 L 3631.378906 1454.929688 C 3631.308594 1447.628906 3630.621094 1440.351562 3629.320312 1433.160156 L 3629.320312 1187.71875 L 3757.328125 1430.191406 C 3784.210938 1481.089844 3847.269531 1500.558594 3898.171875 1473.691406 C 3922.609375 1460.78125 3940.941406 1438.691406 3949.101562 1412.28125 C 3957.261719 1385.871094 3954.601562 1357.300781 3941.691406 1332.851562 L 3623.890625 730.910156 C 3610.988281 706.460938 3588.910156 688.140625 3562.488281 679.980469 C 3554.011719 677.378906 3545.230469 675.871094 3536.371094 675.5 C 3536.359375 675.488281 3536.359375 675.488281 3536.351562 675.488281 C 3521.140625 669.941406 3504.691406 666.921875 3487.511719 666.921875 Z M 1393.25 689.519531 C 1377.269531 689.519531 1361.980469 692.339844 1347.839844 697.5 C 1339.710938 697.871094 1331.660156 699.261719 1323.871094 701.640625 C 1299.359375 709.21875 1278.859375 726.21875 1266.878906 748.910156 L 971.929688 1307.578125 C 959.949219 1330.269531 957.472656 1356.789062 965.042969 1381.300781 C 972.613281 1405.820312 989.613281 1426.320312 1012.300781 1438.300781 C 1034.988281 1450.289062 1061.511719 1452.769531 1086.03125 1445.199219 C 1110.550781 1437.621094 1131.058594 1420.621094 1143.039062 1397.929688 L 1261.640625 1173.25 L 1261.640625 1404.78125 C 1261.640625 1414.710938 1262.769531 1424.378906 1264.828125 1433.671875 L 1264.828125 2231.320312 C 1264.828125 2263.394531 1277.570312 2294.15625 1300.25 2316.835938 C 1322.929688 2339.515625 1353.691406 2352.257812 1385.769531 2352.253906 C 1417.839844 2352.257812 1448.601562 2339.515625 1471.28125 2316.835938 C 1493.960938 2294.15625 1506.699219 2263.394531 1506.699219 2231.320312 L 1506.699219 1536.394531 L 1526.480469 1536.394531 C 1442.621094 1490.609375 1410.140625 1383.828125 1454.890625 1299.089844 L 1759.191406 722.699219 C 1748.789062 713.121094 1736.410156 705.929688 1722.929688 701.640625 C 1715.058594 699.230469 1706.910156 697.828125 1698.679688 697.480469 C 1684.558594 692.328125 1669.289062 689.519531 1653.339844 689.519531 Z M 3796.691406 689.519531 C 3780.71875 689.519531 3765.421875 692.339844 3751.28125 697.5 C 3743.148438 697.871094 3735.101562 699.261719 3727.320312 701.640625 C 3716.820312 705.011719 3706.980469 710.148438 3698.21875 716.839844 L 4005.621094 1299.089844 C 4050.359375 1383.839844 4017.859375 1490.621094 3933.96875 1536.394531 L 3948.46875 1536.394531 L 3948.46875 2231.320312 C 3948.46875 2263.394531 3961.210938 2294.15625 3983.890625 2316.835938 C 4006.570312 2339.515625 4037.328125 2352.257812 4069.398438 2352.253906 C 4136.179688 2352.242188 4190.308594 2298.101562 4190.308594 2231.320312 L 4190.308594 1420.890625 C 4190.238281 1414.121094 4189.601562 1407.371094 4188.398438 1400.710938 L 4188.398438 1172.871094 L 4307.199219 1397.929688 C 4319.179688 1420.621094 4339.691406 1437.621094 4364.199219 1445.191406 C 4388.71875 1452.769531 4415.25 1450.289062 4437.941406 1438.300781 C 4460.628906 1426.320312 4477.628906 1405.820312 4485.191406 1381.300781 C 4492.769531 1356.789062 4490.289062 1330.269531 4478.308594 1307.578125 L 4183.359375 748.910156 C 4171.378906 726.21875 4150.878906 709.21875 4126.371094 701.640625 C 4118.5 699.230469 4110.351562 697.828125 4102.128906 697.480469 C 4102.128906 697.480469 4102.128906 697.480469 4102.121094 697.480469 C 4088 692.328125 4072.730469 689.519531 4056.78125 689.519531 Z M 833.417969 752.128906 C 819.15625 752.128906 805.507812 754.648438 792.882812 759.261719 C 785.625 759.589844 778.433594 760.820312 771.484375 762.949219 C 749.601562 769.710938 731.300781 784.890625 720.609375 805.148438 L 457.296875 1303.890625 C 435.027344 1346.070312 451.164062 1398.308594 493.335938 1420.578125 C 513.589844 1431.289062 537.269531 1433.5 559.160156 1426.738281 C 581.050781 1419.980469 599.359375 1404.808594 610.054688 1384.539062 L 715.929688 1183.960938 L 715.929688 1390.660156 C 715.929688 1399.53125 716.925781 1408.148438 718.785156 1416.449219 L 718.785156 2128.523438 C 718.78125 2157.15625 730.15625 2184.617188 750.398438 2204.863281 C 770.644531 2225.109375 798.105469 2236.484375 826.738281 2236.484375 C 855.371094 2236.484375 882.832031 2225.113281 903.078125 2204.867188 C 923.324219 2184.617188 934.699219 2157.15625 934.695312 2128.523438 L 934.695312 1508.148438 L 968.910156 1508.148438 L 968.910156 2128.523438 C 968.90625 2157.160156 980.28125 2184.621094 1000.53125 2204.867188 C 1020.78125 2225.117188 1048.238281 2236.488281 1076.878906 2236.484375 C 1136.488281 2236.472656 1184.808594 2188.140625 1184.808594 2128.523438 L 1184.808594 1459.019531 C 1134.960938 1518.539062 1049.589844 1539.78125 978.527344 1502.230469 C 896.726562 1459.039062 864.796875 1355.609375 907.996094 1273.808594 L 1165.269531 786.511719 C 1155.019531 775.519531 1142.089844 767.398438 1127.730469 762.949219 C 1120.710938 760.789062 1113.429688 759.550781 1106.089844 759.230469 C 1106.089844 759.230469 1106.089844 759.230469 1106.078125 759.230469 C 1093.480469 754.640625 1079.839844 752.128906 1065.609375 752.128906 Z M 4355.789062 752.128906 C 4341.519531 752.128906 4327.859375 754.648438 4315.238281 759.261719 C 4307.980469 759.589844 4300.800781 760.820312 4293.851562 762.949219 C 4287.839844 764.941406 4282.070312 767.589844 4276.640625 770.851562 L 4542.179688 1273.808594 L 4542.179688 1273.839844 C 4585.359375 1355.640625 4553.441406 1459.039062 4471.648438 1502.230469 C 4467.5 1504.429688 4463.300781 1506.359375 4459.058594 1508.148438 L 4491.269531 1508.148438 L 4491.269531 2128.523438 C 4491.269531 2157.15625 4502.640625 2184.617188 4522.890625 2204.863281 C 4543.140625 2225.113281 4570.601562 2236.484375 4599.230469 2236.484375 C 4658.851562 2236.476562 4707.179688 2188.140625 4707.171875 2128.523438 L 4707.171875 1405.039062 C 4707.109375 1399 4706.539062 1392.96875 4705.46875 1387.03125 L 4705.46875 1183.628906 L 4811.519531 1384.539062 C 4822.21875 1404.800781 4840.53125 1419.980469 4862.410156 1426.738281 C 4884.300781 1433.5 4907.980469 1431.28125 4928.230469 1420.578125 C 4970.410156 1398.308594 4986.550781 1346.070312 4964.28125 1303.890625 L 4700.960938 805.148438 C 4690.269531 784.890625 4671.96875 769.710938 4650.089844 762.941406 C 4643.070312 760.789062 4635.789062 759.539062 4628.449219 759.230469 C 4628.441406 759.230469 4628.441406 759.230469 4628.441406 759.230469 C 4615.828125 754.628906 4602.210938 752.128906 4587.96875 752.128906 Z M 4262.550781 1455.269531 L 4262.550781 2191.5625 C 4282.609375 2219.457031 4314.75 2236.136719 4349.101562 2236.484375 C 4377.730469 2236.484375 4405.191406 2225.113281 4425.441406 2204.867188 C 4445.691406 2184.617188 4457.058594 2157.15625 4457.058594 2128.523438 L 4457.058594 1509 C 4387.789062 1537.246094 4308.78125 1513.257812 4262.550781 1455.269531 Z M 1762.089844 1471.480469 C 1717.699219 1545.796875 1624.570312 1577.132812 1545.019531 1545.222656 L 1545.019531 2231.320312 C 1545.019531 2263.394531 1557.761719 2294.15625 1580.441406 2316.835938 C 1603.121094 2339.515625 1633.878906 2352.257812 1665.960938 2352.253906 C 1703.691406 2352.222656 1739.238281 2334.578125 1762.089844 2304.550781 Z M 3703.671875 1479.390625 L 3703.671875 2316.800781 C 3726.351562 2339.496094 3757.121094 2352.25 3789.210938 2352.253906 C 3821.28125 2352.257812 3852.039062 2339.515625 3874.71875 2316.835938 C 3897.398438 2294.15625 3910.140625 2263.394531 3910.140625 2231.320312 L 3910.140625 1547.066406 C 3834.789062 1574.429688 3748.769531 1546.265625 3703.671875 1479.390625 Z M 3703.671875 1479.390625 "/>
</svg>
